<?xml version="1.0" encoding="UTF-8"?>
<!DOCTYPE svg PUBLIC "-//W3C//DTD SVG 1.1//EN" "http://www.w3.org/Graphics/SVG/1.1/DTD/svg11.dtd">
<!-- Creator: CorelDRAW (Versión OEM) -->
<svg xmlns="http://www.w3.org/2000/svg" xml:space="preserve" width="200mm" height="200mm" version="1.1" style="shape-rendering:geometricPrecision; text-rendering:geometricPrecision; image-rendering:optimizeQuality; fill-rule:evenodd; clip-rule:evenodd"
viewBox="0 0 20000 20000"
 xmlns:xlink="http://www.w3.org/1999/xlink"
 xmlns:xodm="http://www.corel.com/coreldraw/odm/2003">
 <defs>
  <style type="text/css">
   <![CDATA[
    .fil0 {fill:#E79F0E}
   ]]>
  </style>
 </defs>
 <g id="Capa_x0020_1">
  <metadata id="CorelCorpID_0Corel-Layer"/>
  <g id="_2376802052592">
   <path class="fil0" d="M7927.99 6675.82c64.92,-88.1 120.97,-105.66 221.52,-163.41 73.42,-42.19 147.05,-92.02 217.41,-135.1 124.85,-76.43 324.03,-222.91 470.64,-253.2 136.49,186.49 382.19,336.53 724.23,329.32 357.9,-7.54 527.83,-180.54 706.59,-330.49 77.15,21.86 727.08,398.51 837.44,509.03l-3177.83 43.85zm-4776.27 2374.31l90.68 356.46c296.95,-129.65 1382.32,-840.4 1544,-857.54l0.5 2978.58 757.02 0.28 7.35 -4228.81 602.09 -17.46 -294.88 202.41 3.65 401.72c190.35,-81.64 458.24,-260.33 643.55,-368.49 399.62,-233.26 246.14,-234.26 821.72,-232.83 695.87,1.72 1392.22,2.13 2088.09,0.02 1383.21,-4.16 2791.51,-21.38 4172.38,2.13l7.72 375.93c-414.5,-150.93 -316.72,-104.35 -903.9,-103.16 81.83,113.66 790.23,484.17 901.71,538.96l1.06 3420.24 743.72 10.94 3.71 -2971.93c156.67,12.59 1308.88,754.55 1620.54,873.14l82.86 -352.28c-133.65,-58.25 -295.45,-164.52 -427.45,-235.23 -146.09,-78.25 -266.3,-147.01 -416.25,-231.27 -224.17,-125.97 -639.88,-400.96 -854.95,-472.28 -20.6,-431.5 106.71,-1166.8 -184.42,-1373.14 -292.69,-207.45 -1820.49,-32.61 -2217.71,-94.5 -107.67,-16.78 -412.67,-219.65 -520.04,-285.6 -308.27,-189.35 -677.31,-436.76 -978.51,-601.84 230.23,-1204.49 -1078.45,-1569.77 -1649.75,-862.16 -241.59,299.24 -178.02,479.74 -173.79,855.06 -80.51,64.56 -1310.39,854.56 -1417.68,883.89 -264.82,72.38 -1891.32,-85.83 -2204.27,83.32 -332.03,179.46 -207.99,910.8 -214.54,1349.92l-1634.21 955.52z"/>
   <path class="fil0" d="M8434.18 12256.63c181.77,-80.12 1928.19,-31.92 2276.05,-25.75 -1.45,311.15 -161.15,249.43 -441.78,248.51l-1382.41 -0.78c-261.93,1.98 -444.44,60.3 -451.86,-221.98zm6865.94 147.26c51.45,-202.65 68.37,-550.32 -150.89,-590.73l-10233.43 -4.97c-1046.02,2.04 -1137.69,-100.86 -1095.91,479.39 40.74,565.89 566.46,623.89 978.27,625.85l9440.52 2.85c513.12,-0.5 946.61,-60.01 1061.44,-512.39z"/>
   <path class="fil0" d="M16045.29 9078.44l-82.86 352.28 -0.84 283.39c-321.41,144.46 -998.31,429.52 -1244.03,598.75l1.51 375.34c224.46,-15.22 1062.59,-515.66 1371.9,-607.04 148.62,350.95 725.81,691.54 1288.78,520.71 444.06,-134.75 814.36,-548.22 785.02,-1114.47 -27.5,-530.68 -407.79,-923.27 -881.1,-1015.94 -857.59,-167.93 -1183.55,563.71 -1238.38,606.98z"/>
   <path class="fil0" d="M3242.4 9406.59l-90.68 -356.46c-101.33,-91.26 -429.1,-762.03 -1248.97,-574.71 -1123.5,256.7 -1139.31,1806.7 -92.58,2121.48 264.04,79.41 575.69,57.85 807.76,-51.92 292.36,-138.29 322.31,-239.73 503.88,-451.49l1288.3 600.21 11.98 -413.11 -1177.89 -551.96 -1.8 -322.04z"/>
  </g>
 </g>
</svg>
